<svg xmlns="http://www.w3.org/2000/svg" viewBox="0 0 24 24" fill="currentColor" role="img" aria-label="ChatGPT">
  <title>ChatGPT</title>
  <path d="M21.18 9.83a5.6 5.6 0 0 0-.49-4.6 5.69 5.69 0 0 0-6.12-2.72A5.62 5.62 0 0 0 4.9 4.55a5.6 5.6 0 0 0-3.75 2.72 5.68 5.68 0 0 0 .7 6.66 5.6 5.6 0 0 0 .49 4.61 5.69 5.69 0 0 0 6.12 2.72 5.6 5.6 0 0 0 4.23 1.89 5.69 5.69 0 0 0 5.42-3.94 5.6 5.6 0 0 0 3.75-2.72 5.68 5.68 0 0 0-.7-6.66Zm-8.49 11.86a4.21 4.21 0 0 1-2.7-.98l.13-.07 4.49-2.6a.74.74 0 0 0 .37-.63v-6.34l1.9 1.1v5.24a4.23 4.23 0 0 1-4.19 4.28Zm-9.06-3.87a4.22 4.22 0 0 1-.5-2.83l.13.08 4.49 2.6a.73.73 0 0 0 .73 0l5.49-3.17v2.19l-4.55 2.63a4.23 4.23 0 0 1-5.78-1.5Zm-1.18-9.8A4.21 4.21 0 0 1 4.66 6.2v5.33a.73.73 0 0 0 .37.63l5.48 3.17-1.9 1.1L4.07 13.9a4.23 4.23 0 0 1-1.62-5.88Zm15.6 3.63-5.49-3.18 1.9-1.09 4.55 2.62a4.22 4.22 0 0 1-.65 7.62v-5.34a.74.74 0 0 0-.37-.63ZM20.43 7.7l-.13-.08-4.48-2.62a.74.74 0 0 0-.74 0L9.6 8.18V5.99l4.54-2.62a4.22 4.22 0 0 1 6.28 4.37ZM8.56 12.6l-1.9-1.1V6.26a4.22 4.22 0 0 1 6.92-3.24l-.13.07-4.49 2.6a.73.73 0 0 0-.37.63Zm1.03-2.23 2.45-1.41 2.45 1.41v2.83l-2.45 1.41-2.45-1.41Z"/>
</svg>
